HIERARCHY
ROOT Hips
{
  OFFSET 1.44925e-005 102.336 -0.101585
  CHANNELS 6 Xposition Yposition Zposition Zrotation Xrotation Yrotation
  JOINT LeftUpLeg
  {
    OFFSET 8.9458 -8.66707 0.101652
    CHANNELS 3 Zrotation Xrotation Yrotation
    JOINT LeftLeg
    {
      OFFSET 0 -44.4227 1.3727
      CHANNELS 3 Zrotation Xrotation Yrotation
      JOINT LeftFoot
      {
        OFFSET -0.253549 -42.0924 -1.46059
        CHANNELS 3 Zrotation Xrotation Yrotation
        JOINT LeftToes
        {
          OFFSET -0.04 -4.41509 8.4991
          CHANNELS 3 Zrotation Xrotation Yrotation
          End Site
          {
            OFFSET 0.08 -0.047448 9.77979
          }
        }
      }
    }
  }
  JOINT Spine
  {
    OFFSET 0 11.8905 0
    CHANNELS 3 Zrotation Xrotation Yrotation
    JOINT Spine1
    {
      OFFSET 0 25.6574 0.127663
      CHANNELS 3 Zrotation Xrotation Yrotation
      JOINT RightShoulder
      {
        OFFSET -8.99 -0.362252 -0.22
        CHANNELS 3 Zrotation Xrotation Yrotation
        JOINT RightArm
        {
          OFFSET -10.2827 -0.00338 0.322123
          CHANNELS 3 Zrotation Xrotation Yrotation
          JOINT RightForeArm
          {
            OFFSET -26.364 0.099144 -1.42434
            CHANNELS 3 Zrotation Xrotation Yrotation
            JOINT RightHand
            {
              OFFSET -22.0324 0.085362 1.02216
              CHANNELS 3 Zrotation Xrotation Yrotation
              End Site
              {
                OFFSET -13.3284 -0.6 1.50291
              }
            }
          }
        }
      }
      JOINT LeftShoulder1
      {
        OFFSET 8.99 -0.362252 -0.22
        CHANNELS 3 Zrotation Xrotation Yrotation
        JOINT LeftArm
        {
          OFFSET 10.2827 -0.00337999 0.322123
          CHANNELS 3 Zrotation Xrotation Yrotation
          JOINT LeftForeArm
          {
            OFFSET 26.2597 0.099144 -1.42434
            CHANNELS 3 Zrotation Xrotation Yrotation
            JOINT LeftHand
            {
              OFFSET 22.0902 0.085362 1.02216
              CHANNELS 3 Zrotation Xrotation Yrotation
              End Site
              {
                OFFSET 13.419 -0.6 1.50291
              }
            }
          }
        }
      }
      JOINT Head
      {
        OFFSET 0 8.73416 0.011341
        CHANNELS 3 Zrotation Xrotation Yrotation
        End Site
        {
          OFFSET -0.29 12.7742 2.51395
        }
      }
    }
  }
  JOINT RightUpLeg
  {
    OFFSET -8.9458 -8.66707 0.101652
    CHANNELS 3 Zrotation Xrotation Yrotation
    JOINT RightLeg
    {
      OFFSET 0 -44.4227 1.3727
      CHANNELS 3 Zrotation Xrotation Yrotation
      JOINT RightFoot
      {
        OFFSET 0.253549 -42.0924 -1.46059
        CHANNELS 3 Zrotation Xrotation Yrotation
        JOINT RightToes
        {
          OFFSET 0.04 -4.41509 8.4991
          CHANNELS 3 Zrotation Xrotation Yrotation
          End Site
          {
            OFFSET -0.08 -0.137448 9.77979
          }
        }
      }
    }
  }
}
MOTION
Frames:	19
Frame Time:	0.0333333
45.9 95.1649 4.14895 -9.84561 3.57438 -87.3505 5.67626 11.111 8.94532 1.41005 53.8547 13.9889 -14.936 -8.53041 -0.153292 -1.33904e-009 8.75235e-006 -1.47764e-008 19.6782 12.1402 3.56689 -10.742 0.835344 8.16028 12.3849 0.633389 -1.36747 50.4023 -24.933 87.6509 6.9703 60.7082 2.02519 -12.9371 8.78057 5.25017 -37.0244 2.86085 -3.11954 -31.8749 -4.83762 15.6363 17.5065 41.7687 -43.4427 5.82328 9.61819 -0.917488 -3.24133 -5.65512 -20.5307 7.21325 -20.2886 -2.89783 -1.21142 33.9571 -19.7413 -3.02742 -9.34708 -0.222664 0.0462048 0.000530889 0.662642 
42.6811 94.7452 3.82127 -9.99962 5.40313 -86.5894 8.64737 1.44188 5.96152 2.33166 70.5702 14.2963 -9.8627 4.6204 1.0418 -1.33904e-009 8.75235e-006 -1.47764e-008 24.7256 13.3148 3.47632 -13.6631 1.55998 9.93377 8.50588 0.516507 -1.63535 52.8864 -24.5888 93.6633 22.4884 64.9978 -19.9624 -9.0525 9.19201 4.5677 -35.6652 2.7426 -3.05897 -30.1274 -4.3949 24.2674 15.423 42.0836 -39.0252 5.82328 9.61819 -0.917488 -3.30796 -7.46762 -23.522 9.68094 -19.5098 -1.81811 -1.31742 36.9068 -21.4674 -1.654 -12.9736 -0.282719 0.0462048 0.000530889 0.662642 
39.4781 94.7997 3.60889 -10.4347 6.43315 -84.8696 9.26498 -7.81346 2.11222 8.29394 84.858 7.28595 -7.21991 9.29372 1.01138 -1.33904e-009 8.75235e-006 -1.47764e-008 27.2464 13.8066 3.23793 -14.2401 2.68116 10.7613 7.5852 0.406921 -2.24438 55.6418 -25.6304 97.0985 19.2107 65.8802 -17.1338 -7.22954 9.36894 4.22224 -34.4054 2.64681 -3.031 -29.8827 -2.9585 32.2864 13.4608 40.8624 -36.9676 5.82328 9.61819 -0.917488 -3.15483 -9.31475 -25.9873 10.5742 -17.2775 -3.70123 -1.36136 37.6409 -21.3758 -0.274107 -15.6182 -0.247291 0.0462048 0.000530889 0.662642 
35.9838 95.6873 3.45819 -10.7586 6.53048 -84.6137 7.94554 -15.4249 0.143703 172.528 84.4411 -159.237 -5.50527 5.62034 0.590735 -1.33904e-009 8.75235e-006 -1.47764e-008 26.8708 14.4043 3.73887 -13.1726 2.60553 11.2284 8.87846 0.343111 -2.73255 55.7404 -27.5119 97.215 15.4035 59.6527 -13.9834 -9.35068 9.19214 4.18373 -33.6028 2.58752 -3.01542 -29.7581 -3.77502 40.5961 11.6897 38.6874 -36.7498 5.82328 9.61819 -0.917488 -3.13782 -10.2103 -27.3836 10.412 -13.6214 -5.42944 -1.11614 35.944 -19.9276 0.212689 -16.996 -0.216804 0.0462048 0.000530889 0.662642 
32.4381 96.7625 3.37686 -11.0465 6.10118 -85.6781 6.18399 -21.766 -0.036008 176.684 77.5383 -164.264 -4.71521 -0.133535 0.2917 -1.33904e-009 8.75235e-006 -1.47764e-008 25.2266 15.0884 4.5626 -11.4637 2.06707 11.6059 9.80184 0.30807 -2.97511 54.1703 -28.7002 95.7239 14.2352 54.3032 -12.7299 -11.6995 8.96554 4.54351 -33.0026 2.53842 -2.9908 -28.0036 -7.64169 48.3048 9.98511 36.266 -37.3113 5.82328 9.61819 -0.917488 -3.55795 -10.0224 -27.6144 9.74474 -9.39975 -5.33156 -0.17874 33.4903 -18.8971 1.14358 -18.2931 -0.133106 0.0462048 0.000530889 0.662642 
28.8872 97.6185 3.35855 -11.4908 5.38372 -86.9622 4.15106 -27.1465 0.0909637 177.287 74.032 -163.219 -4.79998 -3.59463 0.17688 -1.33904e-009 8.75235e-006 -1.47764e-008 23.7129 15.3035 5.19902 -10.3936 2.32491 11.9084 8.99167 0.242815 -3.35234 54.9215 -28.608 94.8431 13.7416 53.3591 -12.4302 -10.4841 9.05985 4.6646 -32.4877 2.5027 -2.98534 -25.8081 -11.4541 53.5801 9.44944 34.9264 -38.9551 5.82328 9.61819 -0.917488 -4.20988 -9.49238 -27.1978 8.57077 -4.98032 -5.07377 0.883453 31.0968 -17.714 2.43405 -19.6271 0.00806079 0.0462048 0.000530889 0.662642 
25.311 98.3496 3.3467 -11.8267 4.39149 -88.175 1.67779 -31.535 -0.186681 177.063 73.9802 -160.795 -5.32409 -6.35331 0.0821493 -1.33904e-009 8.75235e-006 -1.47764e-008 22.3898 15.1466 5.68433 -10.5444 2.92152 12.1364 8.04116 0.157763 -3.88012 58.4953 -28.4444 94.0457 11.4343 49.479 -11.0766 -7.32346 9.36079 4.16363 -32.3064 2.49641 -2.9996 -25.4019 -12.9926 55.0293 10.6969 35.1213 -41.8973 5.82328 9.61819 -0.917488 -4.5245 -9.17301 -26.5356 7.01961 -0.724489 -5.5686 1.50933 28.6075 -15.8068 2.82767 -20.4497 0.0660614 0.0462048 0.000530889 0.662642 
21.7925 98.9337 3.30437 -11.8613 3.27104 -89.3714 -0.629305 -35.0376 -0.730482 176.153 77.2719 -159.402 -6.34875 -9.7873 -0.0765993 -1.33904e-009 8.75235e-006 -1.47764e-008 20.9323 15.095 6.00499 -11.2115 2.75258 12.1057 8.97854 0.136296 -3.99971 62.3442 -29.3073 91.8271 7.43641 36.3467 -5.87079 -5.33114 9.59145 2.55102 -32.5423 2.5096 -2.99397 -25.9925 -13.2243 53.3177 13.2353 35.9381 -46.0966 5.82328 9.61819 -0.917488 -4.31741 -8.90228 -25.4912 5.47108 2.94665 -6.28352 1.60829 26.2744 -13.6332 2.61243 -21.2774 0.0562859 0.0462048 0.000530889 0.662642 
18.3333 99.2402 3.22053 -11.8155 2.16076 -90.2104 -2.32377 -37.5604 -1.27945 172.835 83.4245 -156.25 -7.4311 -12.276 -0.243848 -1.33904e-009 8.75235e-006 -1.47764e-008 19.1983 15.0693 5.93262 -11.4396 2.09183 11.5006 11.5199 0.222462 -3.47968 63.0915 -30.6688 87.0964 7.07888 16.1866 5.71712 -4.35594 9.7173 0.432888 -32.9918 2.52857 -2.96743 -26.0293 -14.5379 49.6439 16.3659 36.3542 -51.5777 5.82328 9.61819 -0.917488 -4.06157 -8.44678 -23.8998 4.07621 6.30504 -7.09465 1.51105 24.2275 -11.6621 2.98657 -22.6138 0.13054 0.0462048 0.000530889 0.662642 
14.921 99.3335 3.10283 -11.7489 1.17783 -90.5554 -3.43238 -38.6174 -1.55978 18.802 87.4291 -0.385421 -7.98549 -13.6418 -0.356878 -1.33904e-009 8.75235e-006 -1.47764e-008 17.2571 14.5215 5.55349 -10.9583 2.05236 10.4345 14.5812 0.386105 -2.71742 58.3114 -30.8188 79.0233 15.1679 -6.31234 18.7419 -0.963303 9.87235 -2.20699 -33.4069 2.54811 -2.94841 -26.2832 -17.6559 43.8728 20.1628 36.1714 -58.4231 5.82328 9.61819 -0.917488 -4.2119 -7.96953 -21.937 2.91111 9.63136 -7.97135 1.56035 22.1186 -10.3167 3.73202 -23.7181 0.260335 0.0462048 0.000530889 0.662642 
11.5635 99.335 2.96281 -11.3532 0.546994 -90.8275 -3.69034 -37.994 -1.26681 3.8092 75.2972 17.5766 -8.11699 -14.8522 -0.44448 -1.33904e-009 8.75235e-006 -1.47764e-008 15.3403 13.2842 5.23898 -10.0445 2.60252 9.35819 18.2864 0.607004 -1.94074 58.6732 -31.7724 72.9117 30.9943 -16.8235 34.3268 4.20199 9.83099 -6.59786 -33.5458 2.54814 -2.9257 -28.2738 -21.3294 35.3939 24.7208 35.3017 -66.3631 5.82328 9.61819 -0.917488 -4.59594 -7.52007 -19.7262 2.17724 12.5144 -8.50704 1.6519 19.9487 -9.62586 3.89448 -24.2118 0.298615 0.0462048 0.000530889 0.662642 
8.19374 99.2972 2.79888 -10.5627 0.0482433 -91.454 -3.27124 -35.8704 -0.62245 2.14087 59.9398 20.1171 -7.82547 -14.7567 -0.420956 -1.33904e-009 8.75235e-006 -1.47764e-008 13.3615 11.8291 5.06834 -9.12933 2.74937 8.41571 22.8357 0.91299 -1.11909 59.0606 -33.751 65.5627 47.2586 -14.3744 48.0239 7.095 9.53896 -10.4435 -33.2463 2.50419 -2.86335 -32.2424 -24.2547 24.0826 28.6266 33.5208 -73.8227 5.82328 9.61819 -0.917488 -4.7512 -6.62539 -17.1908 1.66867 14.9947 -8.62257 1.65049 17.5653 -8.96332 3.98222 -24.6816 0.32662 0.0462048 0.000530889 0.662642 
4.68929 99.0649 2.66643 -9.81724 -0.341435 -91.999 -2.86776 -32.4307 -0.292888 1.36181 43.5345 19.9191 -7.46678 -13.2502 -0.30525 -1.33904e-009 8.75235e-006 -1.47764e-008 11.3724 10.5722 4.69619 -8.43641 2.29532 7.40099 27.398 1.25649 -0.401505 56.3041 -35.1681 54.6509 56.3696 -5.0865 57.0796 7.85925 9.41166 -11.5859 -32.6761 2.43064 -2.76814 -37.4467 -25.3954 9.80842 30.5361 31.5992 -78.8183 5.82328 9.61819 -0.917488 -4.53866 -4.94297 -14.4696 1.12971 17.6512 -8.82521 1.74455 15.1611 -7.88155 5.01866 -25.4583 0.5181 0.0462048 0.000530889 0.662642 
0.906512 98.419 2.67728 -9.48858 -0.332223 -92.2579 -2.35917 -28.2076 0.229994 1.11468 29.8056 20.622 -7.5468 -12.9299 -0.289959 -1.33904e-009 8.75235e-006 -1.47764e-008 9.70206 9.32909 3.98695 -7.54948 2.04026 6.1919 31.2719 1.52601 0.00468144 51.8751 -35.7983 41.0681 61.2559 3.92066 62.9004 7.97517 9.33932 -12.4317 -32.0141 2.35415 -2.67704 -42.4385 -23.8059 -7.06653 31.3046 30.9037 -80.6022 5.82328 9.61819 -0.917488 -4.16014 -2.97679 -11.7447 0.84309 20.4189 -9.28652 1.89928 14.0064 -6.72856 6.20015 -26.3133 0.751483 0.0462048 0.000530889 0.662642 
-3.20148 97.5219 2.84249 -9.45318 0.0357881 -92.6082 -1.62625 -24.2465 1.80554 0.942154 21.9038 23.7435 -7.21781 -13.7195 -0.317963 -1.33904e-009 8.75235e-006 -1.47764e-008 7.52251 7.87444 3.12705 -5.4272 2.41091 4.68445 34.4261 1.67949 0.108018 45.6455 -34.9713 25.724 66.1307 9.70701 66.1769 8.01952 9.18886 -14.3153 -30.7816 2.22509 -2.53266 -45.6976 -20.386 -24.2598 32.4658 31.6978 -80.071 5.82328 9.61819 -0.917488 -3.85341 -1.50509 -8.60535 0.865465 22.9107 -9.62171 1.66233 14.4499 -5.89658 6.65186 -27.0607 0.87029 0.0462048 0.000530889 0.662642 
-7.61424 96.5694 3.06976 -9.54387 0.203889 -92.9271 -1.37584 -21.5757 3.18728 0.488281 20.443 27.4203 -5.20237 -12.1584 -0.159858 -1.33904e-009 8.75235e-006 -1.47764e-008 3.32073 6.63132 1.9754 -1.27584 2.61347 2.43281 36.5179 1.74279 0.0740124 38.6882 -31.5309 10.111 69.0279 12.0567 67.1928 8.07794 9.09547 -15.4371 -28.2028 1.94684 -2.16605 -47.651 -17.489 -39.551 33.4551 33.5852 -77.7372 5.82328 9.61819 -0.917488 -3.68627 -0.514557 -4.57331 0.611329 24.9782 -10.1661 0.890545 16.3228 -4.56732 8.47418 -28.0775 1.27582 0.0462048 0.000530889 0.662642 
-12.1589 95.5828 3.31612 -9.94787 -0.590019 -92.4202 -2.76403 -20.5797 4.05639 0.930443 23.7783 27.1195 -1.12606 -7.8636 0.0204188 -1.33904e-009 8.75235e-006 -1.47764e-008 -3.11073 6.51696 0.278064 4.15371 1.74788 -0.697874 36.8006 1.74632 0.0578579 34.0969 -25.6998 -3.90975 66.9537 10.1314 66.2855 8.36674 9.09605 -15.1224 -24.2395 1.52188 -1.48395 -48.9612 -15.3978 -53.4451 30.8291 37.131 -69.8937 5.82328 9.61819 -0.917488 -3.33829 0.593395 -0.322825 -0.669827 26.0518 -11.3018 0.00334757 21.1918 -2.05018 13.5899 -28.5892 2.28793 0.0462048 0.000530889 0.662642 
-16.477 94.7846 3.62218 -10.7265 -1.90286 -91.1474 -5.61791 -20.3692 1.94619 1.37803 29.0491 26.0464 3.36367 -5.32098 -0.0374713 -1.33904e-009 8.75235e-006 -1.47764e-008 -9.94965 7.91947 -1.46495 8.74797 0.160305 -3.75225 35.3603 1.70171 0.077252 33.7979 -19.75 -14.4686 60.406 2.95831 61.9233 9.2577 9.08956 -14.3619 -19.3078 1.05614 -0.581617 -46.6413 -12.4642 -67.5001 19.9462 40.1072 -50.0955 5.82328 9.61819 -0.917488 -2.24372 1.91653 2.82879 -3.38276 24.4236 -10.8444 -0.485885 31.791 -0.599183 18.7154 -25.2408 2.68985 0.0462048 0.000530889 0.662642 
-20.3171 94.5221 3.98222 -11.5773 -3.55613 -90.7417 -8.30352 -19.3193 -0.164944 1.42595 33.1656 26.7493 5.12783 -7.25061 0.00472835 -1.33904e-009 8.75235e-006 -1.47764e-008 -15.4155 9.94886 -2.35049 11.4771 -1.12104 -5.64855 33.5726 1.637 0.0782817 36.5359 -15.1264 -19.5268 48.8692 -9.15367 51.551 10.5792 9.15691 -12.6919 -13.5864 0.618542 0.505595 -44.3113 -11.7843 -81.5686 6.17001 42.1362 -23.6581 5.82328 9.61819 -0.917488 -0.491817 2.89728 4.87229 -6.75728 18.5934 -7.58485 -0.695951 47.7157 -1.87818 19.2285 -15.1673 1.11817 0.0462048 0.000530889 0.662642 
